<?xml version="1.0" standalone="no"?><!DOCTYPE svg PUBLIC "-//W3C//DTD SVG 1.1//EN" "http://www.w3.org/Graphics/SVG/1.1/DTD/svg11.dtd"><svg class="icon" width="32px" height="32.00px" viewBox="0 0 1024 1024" version="1.1" xmlns="http://www.w3.org/2000/svg"><path fill="#1296db" d="M492.1 63.9h35.7c1 0.1 2 0.3 3 0.4 21.7 2.4 43.6 3.7 65.1 7.3 54.9 9 106.2 28.1 153.5 57.3 55.5 34.3 100.3 79.4 135.9 133.5 22.6 34.4 41.4 70.7 54.2 109.8 10.8 32.8 16.2 66.8 18.8 101.1 0.4 5.2 0.9 10.4 1.4 15.6v49.6c-0.2 0.7-0.6 1.4-0.6 2.1-0.8 10-1.3 20-2.4 29.9-4.1 39.1-12.9 77-28.7 113.3-24.7 56.7-58.1 107.5-103 150.6-41.9 40.2-90.2 70.6-144.2 92.4-23.8 9.6-47.8 18.4-73.4 22-18.9 2.7-37.8 4.8-56.8 7.2-8.3 1-16.5 3-24.8 2.8-19.1-0.4-38.2-1.3-57.1-2.9-18.3-1.6-36.7-3.2-54.6-8-42.2-11.3-83.2-25.8-121.3-47.1-62-34.7-112.1-82.3-151.7-140.6-43.7-64.3-69.6-135-75.9-212.4-0.4-4.3-0.9-8.6-1.4-13V492c0.2-1 0.5-1.9 0.6-2.9 1.3-12.7 2.1-25.4 3.9-38 7-49.6 21.9-96.9 44.4-141.8C148 239 198.9 182.4 264.9 138.9 328.2 97.3 397.3 72.1 473.3 66c6.3-0.5 12.5-1.4 18.8-2.1m191.4 389.5c-0.2 0-0.4-0.1-0.6-0.1-0.2-3.2-0.1-6.5-0.6-9.7-0.4-3-1-5.9-4-8-50.8-35.5-101.6-71-152.3-106.7-2-1.4-3.5-1.3-5.5-0.3-10.2 4.7-20.4 9.3-30.6 14l-133.5 60.9c-2.3 1.1-3.4 2.2-3.6 4.9-0.7 8.3-1.8 16.7-2.7 25-2.9 27.2-5.8 54.5-8.7 81.7-2.7 25.4-5.4 50.7-8.2 76.1-0.3 2.6 0.5 4.1 2.6 5.6 49.4 35.9 98.8 71.9 148.2 107.8 1.7 1.2 3 1.6 5.1 0.7 31.4-12.8 62.9-25.4 94.2-38.3 27-11.1 53.3-23.4 78.4-38.2 2.3-1.4 3.3-3 3.5-5.6 0.4-6.4 1.2-12.7 1.8-19 2.4-24.6 4.8-49.3 7.3-73.9 1.4-14.1 2.9-28.1 4.5-42.1 1.4-11.8 3.1-23.2 4.7-34.8m146.3-107c-0.2-24-0.6-48.3-4.6-72.3-2.8-16.2-7.4-31.7-20.1-43.5-5.2-4.8-10.2-9.7-15.6-14.3-27.6-23.2-58.2-42.4-87.9-62.8-9.4-6.5-19.7-11.8-30.9-14.7-2.4-0.6-5-1.4-7.4-1.1-16.2 2-32.4 3.8-48.4 6.7-22.2 4-44.4 8.8-65.4 17.3-8 3.2-15.3 8.1-22.8 12.4-1.1 0.6-2.1 2.4-2 3.6 0.2 15.4 0.7 30.8 1 46.1 0.5 20.8 0.9 41.5 1.3 62.3 0.2 9-0.2 18 0.1 27 0.1 3.7 0.8 7.4 4.4 9.9 50.8 36.3 101.6 72.7 152.5 109 1.2 0.8 3.3 1.2 4.7 0.8 45.5-14.2 91-28.5 136.5-42.6 2.6-0.8 3.3-2 3.3-4.4 0.3-13.2 0.9-26.1 1.3-39.4M795.4 705c0.8-2-0.9-3.4-3.4-4.7-16.8-8.9-33.6-17.9-50.4-26.9-24.1-12.9-48.2-25.8-72.4-38.7-1.1-0.6-3.3-0.7-4.2-0.1-17.7 12.7-37.4 21.9-57.5 30.1-38.1 15.4-76.3 30.5-114.5 45.6-2.8 1.1-4.1 2.7-4.7 5.5-2.3 11.3-4.7 22.5-7.1 33.8-7.1 33.1-14.3 66.2-21.3 99.3-0.2 1.1 0.4 3 1.2 3.5 15.1 9.8 30.4 19.3 45.5 29.1 17 11.1 34.3 21.6 53.7 28.3 16.1 5.6 31.9 7.1 48.2 0.2 37.5-15.9 75.2-31.2 112.8-46.8 6.3-2.6 12.1-6.3 18.2-9.2 16.5-8 26.7-21 32.8-38 12.8-35.8 18.4-72.7 23.1-111M243.1 302.3c-15.4 9.2-30.4 18.3-45.5 27.2-19.1 11.4-38.1 22.9-54.4 38-9 8.3-17.3 16.6-20.1 29.8-5.6 26.1-11.8 52-12.8 78.7-1.1 30.9-1.3 61.8-1.7 92.7 0 1.7 0.9 3.9 2.2 5.1 17 17.2 34.1 34.2 51.2 51.3 9.4 9.5 18.6 19.1 28 28.6 5 5.1 10 10.2 15.3 15.1 2.3 2.2 4.8 2.3 7.8 0.3 37-24.7 74-49.3 111-74 1.2-0.8 2.4-2.6 2.5-4.1 3.2-28.6 6.2-57.2 9.2-85.8 3.5-33.3 7.1-66.7 10.7-100 0.2-2.3-0.4-3.6-2-5.2-21.9-21-43.6-42.1-65.4-63.2-12.1-11.4-24.1-23-36-34.5M953.5 556c0.1-1.1 0.2-1.8 0.2-2.5 0.6-37.7-0.6-75.3-6-112.7-5-35-13-69.4-27.7-101.8-9.5-21.1-20.9-41.3-31.7-61.8-2.7-5.2-5.7-10.3-9.1-15.1-13.3-19.1-34.2-24.9-56.1-15.6 1 2.9 2.1 5.9 3 8.8 6 18.5 8 37.6 8.9 56.9 0.6 13.3 0.4 26.7 0.1 40.1-0.2 8.4-1.3 16.7-1.9 25.1-0.6 7.7 0.6 14.6 6.1 20.9 4.2 4.8 7.6 10.6 10.5 16.4 5.6 11.2 11.6 22.3 15.8 34 11.9 33.5 22.9 67.2 34.2 100.9 0.8 2.4 1.9 3.3 4.5 3.4 6.6 0.2 13.1 0.8 19.7 1.2 9.7 0.5 19.5 1.1 29.5 1.8M121.7 380.5c1.4-1.3 2.5-2.1 3.4-3.1 6.1-6.3 11.5-13.5 18.5-18.7 17.1-12.8 34.8-25 52.5-36.9 10.3-6.9 20.8-13.9 32-19.2 9-4.2 15.4-9.5 20.4-18.1 15.5-27 32.3-53.1 53.8-76 14.4-15.3 27.8-31.5 41.7-47.2 2.2-2.5 2.7-4.8 1.4-8-4.2-10.7-8-21.6-11.9-32.4-3.8-10.6-3.8-10.7-13.9-5.1-16.9 9.3-34.2 18-50.4 28.3-26.7 17-50.3 37.8-72.1 60.6-24.5 25.6-45.4 54.1-64.9 83.5-8.5 12.9-16.5 26.1-21.7 40.7-2.4 6.7-2.9 13.4-0.5 20.2 3.7 10.3 7.6 20.5 11.7 31.4m231.5-225.8h1.6c29.3-3.4 58.6-3.2 87.7 0.8 21 2.9 41.8 7.1 62.6 11.1 18.6 3.6 18.7 3.8 32.8-3.7 0.4-0.2 0.9-0.5 1.3-0.7 8-4 15.8-8.6 24.1-11.7 22.6-8.7 46.4-12.8 70.4-15.9 9.9-1.3 19.8-2.3 30.5-3.5-0.7-2.8-1.1-5.5-2-7.9-3.3-8.6-6.3-17.4-10.3-25.7-1.5-3-4.9-6.3-8.1-7.2-13.9-4-28-7.5-42.2-10.4-32.9-6.9-66.4-8.1-99.9-8.8-15.8-0.4-31.2 2.5-46.7 4.6-13.8 1.8-27.8 3-41.1 6.5-18.6 4.9-36.7 11.7-55 17.7-7.7 2.6-15.3 5.4-23.2 8.1 5.9 15.7 11.6 31.1 17.5 46.7m414.5 684.4c6.3 0.5 12.1 1.2 17.8 1.2 6.7 0.1 13.4 0.1 20-0.9 8.9-1.3 14.8-7.9 20.4-14.1 27.3-30.2 51.5-62.7 72.4-97.6 26.5-44.1 45.9-90.9 51.9-142.4 0.9-7.5 1.2-15.1 1.8-23-17.8-1.2-34.9-2.4-52.1-3.5-5.3 17.7-13.2 34.1-23 49.4-20.8 32.2-44.3 62.4-71.3 89.8-2.8 2.9-4.1 6-4.6 9.8-1.5 12.3-2.6 24.7-5.1 36.8-6.6 32.1-13.8 64.1-28.2 94.5M105 579c-5.4 7.3-10.1 14.8-16 21.3-5.6 6.1-5.8 12.3-4.3 19.8 6.9 35.6 20.5 68.6 38.4 100.1 25.6 45.2 57.6 85.4 97.1 119.6 9.6 8.3 19.3 16.5 29 24.7 1.6 1.3 3 2.4 4.9-0.2 8.5-11.2 17.1-22.3 25.8-33.4 1.4-1.8 1.1-2.9 0-4.6-3.9-5.6-7.6-11.2-11.3-16.9-22.8-34.2-44.3-69-53.9-109.6-3-12.7-10-22.9-19.6-32.2-24.4-23.6-49.4-46.6-70.8-73.1-5.3-6.2-11.5-11.5-19.3-15.5m477.6 342c-1.1-0.2-1.8-0.5-2.5-0.6-14.5-2.1-28.1-7.2-41.2-13.5-28.3-13.6-54.7-30.1-80.1-48.4-2-1.4-4.7-2.4-7.2-2.5-31.6-2.2-63.4-1.8-94.8-7.2-17.3-3-34.9-4-51.6-9.8-5.4-1.9-10.9-3.1-16.3-4.8-2.1-0.7-3.2-0.2-4.5 1.4-8.1 10.7-16.4 21.3-24.5 32-2.2 2.8-1.8 3.9 1.5 5.7 10 5.6 20.1 11.1 29.8 17.1 14.5 9.1 28.8 18.5 44.7 25.2 34.4 14.3 70.1 24 106.7 30.9 25.1 4.7 50.2 9.4 75.9 8.8 14.6-0.4 29-2 42.5-8.2 11-5.3 19-13.2 21.6-26.1"  /></svg>